<?xml version="1.0" standalone="no"?>
<!DOCTYPE svg PUBLIC "-//W3C//DTD SVG 20010904//EN"
 "http://www.w3.org/TR/2001/REC-SVG-20010904/DTD/svg10.dtd">
<svg version="1.0" xmlns="http://www.w3.org/2000/svg"
 width="2778.000000pt" height="2778.000000pt" viewBox="0 0 2778.000000 2778.000000"
 preserveAspectRatio="xMidYMid meet">
<metadata>
Created by potrace 1.14, written by Peter Selinger 2001-2017
</metadata>
<g transform="translate(0.000000,2778.000000) scale(0.100000,-0.100000)"
fill="#000000" stroke="none">
<path d="M13448 27775 c-2 -1 -75 -6 -163 -9 -88 -4 -191 -9 -230 -11 -109 -6
-324 -23 -390 -30 -22 -2 -71 -7 -110 -10 -78 -6 -153 -14 -205 -20 -154 -19
-370 -47 -390 -50 -14 -2 -45 -6 -70 -10 -25 -4 -56 -8 -70 -10 -51 -8 -296
-47 -315 -51 -50 -10 -243 -46 -265 -50 -58 -10 -275 -56 -280 -59 -3 -2 -21
-6 -40 -9 -19 -3 -75 -15 -125 -27 -49 -11 -97 -22 -105 -24 -8 -2 -71 -17
-140 -35 -69 -17 -132 -33 -140 -35 -8 -2 -58 -16 -110 -30 -52 -15 -102 -28
-110 -30 -8 -1 -42 -11 -75 -21 -33 -10 -64 -19 -70 -20 -181 -46 -906 -290
-1050 -353 -11 -5 -58 -24 -105 -41 -47 -18 -98 -39 -115 -46 -16 -6 -77 -31
-135 -54 -108 -44 -388 -166 -495 -216 -33 -15 -62 -28 -65 -29 -8 -1 -567
-281 -645 -323 -38 -21 -126 -69 -195 -107 -69 -38 -134 -73 -145 -79 -11 -6
-31 -19 -45 -27 -14 -9 -107 -65 -208 -125 -101 -60 -197 -118 -215 -128 -94
-58 -436 -283 -547 -360 -36 -25 -72 -50 -80 -56 -123 -85 -501 -364 -547
-405 -7 -5 -18 -14 -25 -20 -7 -5 -47 -37 -88 -70 -41 -33 -79 -63 -85 -67
-89 -71 -396 -329 -431 -362 -6 -6 -44 -40 -85 -76 -340 -301 -865 -827 -1116
-1116 -62 -72 -130 -149 -139 -158 -5 -6 -59 -69 -118 -141 -60 -71 -127 -152
-150 -179 -22 -27 -48 -58 -56 -70 -8 -12 -20 -27 -27 -34 -7 -8 -26 -30 -41
-50 -30 -40 -207 -271 -220 -287 -4 -5 -19 -26 -32 -45 -14 -19 -27 -37 -30
-40 -3 -3 -50 -68 -105 -145 -54 -77 -119 -169 -145 -205 -48 -68 -217 -322
-235 -352 -5 -10 -39 -64 -75 -120 -36 -56 -69 -110 -75 -120 -5 -9 -58 -97
-116 -195 -198 -331 -311 -539 -498 -918 -124 -250 -155 -315 -208 -435 -14
-30 -33 -73 -43 -95 -10 -23 -39 -90 -65 -150 -45 -107 -54 -128 -81 -190 -88
-197 -284 -748 -418 -1170 -64 -201 -207 -727 -222 -815 -3 -14 -8 -34 -11
-45 -4 -11 -8 -24 -9 -30 -1 -5 -12 -53 -24 -105 -12 -52 -24 -108 -26 -125
-3 -16 -9 -46 -14 -65 -10 -37 -36 -165 -44 -215 -3 -16 -14 -75 -25 -130 -11
-55 -22 -116 -25 -135 -3 -19 -8 -46 -11 -60 -5 -24 -61 -395 -69 -455 -2 -16
-7 -55 -11 -85 -4 -30 -8 -66 -10 -80 -2 -14 -7 -50 -10 -80 -3 -30 -8 -71
-10 -90 -6 -58 -15 -142 -19 -190 -3 -25 -7 -70 -11 -100 -5 -56 -10 -111 -21
-280 -3 -52 -7 -113 -9 -135 -27 -316 -27 -1254 0 -1665 2 -25 6 -92 9 -150 4
-58 9 -121 11 -140 2 -19 7 -69 10 -110 3 -41 7 -91 10 -110 2 -19 7 -64 10
-100 3 -36 8 -76 10 -90 2 -14 6 -50 9 -80 3 -30 8 -71 11 -90 2 -19 7 -55 10
-80 12 -96 15 -119 34 -245 11 -71 22 -148 25 -170 4 -23 9 -52 11 -65 4 -21
16 -89 40 -229 2 -14 9 -47 14 -75 6 -28 13 -62 15 -76 2 -14 11 -59 20 -100
8 -41 17 -86 20 -100 4 -20 76 -340 91 -400 48 -201 115 -449 180 -670 140
-479 336 -1018 555 -1530 52 -122 73 -169 140 -315 10 -22 84 -173 164 -335
139 -281 166 -335 274 -530 26 -46 54 -97 62 -112 16 -29 120 -208 205 -353
57 -96 219 -352 335 -525 184 -277 286 -419 535 -750 41 -54 253 -321 305
-383 33 -40 53 -63 79 -92 14 -16 34 -40 42 -53 9 -12 31 -39 50 -60 19 -20
61 -69 94 -107 33 -39 69 -79 80 -91 11 -11 42 -45 69 -75 243 -271 759 -789
952 -956 12 -10 54 -47 94 -83 40 -36 82 -73 94 -83 12 -10 35 -31 51 -45 122
-110 566 -471 659 -537 15 -11 33 -25 40 -30 15 -13 274 -206 306 -227 14 -10
57 -40 95 -67 409 -291 993 -650 1445 -890 187 -100 644 -324 805 -396 137
-61 196 -87 440 -190 433 -183 1029 -385 1625 -550 85 -24 216 -67 290 -95
331 -127 927 -311 1048 -324 92 -10 166 -17 342 -30 221 -18 439 -21 1395 -21
946 0 1272 4 1470 20 52 4 150 12 270 20 106 8 164 13 225 19 30 4 80 8 110
11 30 3 71 8 90 10 79 9 138 16 185 21 28 2 57 7 65 9 8 2 44 7 80 10 36 4 74
9 85 11 11 2 40 6 65 10 25 3 70 9 100 15 30 5 75 11 100 14 25 3 56 8 68 11
13 3 43 7 65 10 23 3 48 7 56 10 8 3 30 7 50 10 20 3 117 21 216 40 99 20 189
37 200 39 22 3 162 33 300 64 50 11 189 46 310 76 121 31 227 58 235 60 8 2
40 11 70 20 30 9 84 24 120 34 266 76 771 238 810 259 8 5 69 37 135 72 111
58 181 96 263 142 18 10 86 40 150 67 117 49 271 118 452 201 106 49 627 312
705 355 47 26 245 137 345 193 254 142 783 482 1080 695 74 53 143 102 153
109 112 79 591 453 697 544 14 12 77 66 140 120 441 377 1022 947 1332 1306
11 13 41 48 68 78 58 66 79 90 133 154 23 27 47 54 52 60 6 6 39 47 75 91 35
44 67 82 70 85 9 8 192 241 240 305 25 33 48 62 51 65 3 3 55 73 115 155 60
83 112 155 116 160 52 68 280 405 390 575 60 92 178 282 178 285 0 2 22 39 48
82 53 85 51 82 207 358 119 210 391 743 475 930 29 66 68 152 86 191 18 40 56
127 84 195 28 68 57 138 65 154 7 17 23 55 34 85 12 30 26 64 31 75 59 126
285 778 380 1100 23 77 50 167 60 200 41 136 172 651 187 735 2 14 9 45 14 70
6 25 12 52 14 60 5 24 37 173 40 190 20 106 45 242 50 270 3 19 14 85 25 145
10 61 22 130 25 155 3 25 10 70 15 100 5 30 12 75 15 100 3 25 8 56 10 70 2
14 6 48 10 75 3 28 10 86 16 130 19 155 18 147 44 430 4 44 9 94 10 110 3 27
12 159 20 287 28 427 27 1268 0 1668 -19 284 -24 338 -40 510 -3 25 -7 70 -10
100 -3 30 -10 93 -16 140 -6 47 -12 103 -14 125 -3 22 -7 56 -9 75 -6 37 -15
101 -20 148 -5 38 -26 181 -32 212 -2 14 -11 66 -19 115 -8 50 -17 101 -20
115 -3 14 -7 41 -10 60 -4 34 -58 303 -95 480 -46 218 -123 534 -186 755 -20
72 -44 159 -54 195 -55 196 -217 683 -318 955 -95 257 -237 600 -352 850 -15
33 -44 98 -66 145 -41 90 -314 634 -356 710 -14 25 -36 65 -50 90 -14 25 -40
72 -58 105 -29 52 -250 427 -283 479 -175 279 -337 525 -474 721 -61 86 -274
377 -283 385 -3 3 -25 32 -50 65 -41 56 -272 347 -295 371 -5 7 -26 31 -45 55
-111 138 -308 362 -520 590 -188 203 -659 667 -807 796 -11 10 -53 48 -94 85
-77 69 -84 75 -169 148 -29 25 -58 50 -64 55 -6 6 -36 30 -66 55 -30 25 -57
47 -60 50 -10 10 -76 65 -114 95 -21 17 -48 38 -60 49 -11 10 -37 30 -56 45
-19 14 -37 28 -40 32 -19 21 -426 325 -575 429 -66 46 -122 87 -125 90 -3 3
-84 57 -180 121 -284 188 -350 230 -570 361 -91 54 -172 102 -180 108 -14 8
-218 123 -285 160 -323 179 -795 410 -1120 550 -66 28 -139 60 -162 71 -24 10
-45 19 -48 19 -3 0 -24 9 -48 19 -71 33 -363 145 -532 206 -88 31 -169 61
-180 65 -22 9 -392 130 -490 160 -151 46 -234 70 -288 84 -31 8 -61 17 -65 20
-5 3 -19 7 -33 10 -13 2 -96 24 -184 47 -88 23 -185 47 -215 54 -275 64 -410
94 -435 98 -16 3 -86 17 -155 30 -69 14 -138 28 -155 31 -16 2 -100 16 -185
31 -213 36 -244 41 -305 49 -22 3 -74 11 -115 16 -41 6 -94 13 -118 15 -23 3
-55 7 -70 9 -15 3 -52 7 -82 11 -30 3 -71 8 -90 10 -62 7 -138 15 -295 30
-100 10 -219 18 -410 30 -55 3 -136 8 -180 11 -86 6 -1091 14 -1097 9z"/>
</g>
</svg>
